<svg xmlns="http://www.w3.org/2000/svg" id="Layer_1" data-name="Layer 1" viewBox="0 0 400 245">
<defs>
<style>.cls-1{fill:#474747;}.cls-2{fill:#999;}.cls-3{fill:#757575;}.cls-4{fill:#c9c9c9;}.cls-5{fill:#0028fc;}.cls-6{fill:#0037fc;}.cls-7{fill:#0059fc;}.cls-8{fill:#39a2fc;}.cls-9{fill:#9edbfc;}.cls-10{fill:#0079fc;}.cls-11{fill:#0000d8;}.cls-12{fill:#4dbbfc;}</style>
</defs>
<polygon class="cls-1" points="192.385 91.286 205.476 114.016 179.293 114.016 192.385 91.286"/>
<polygon class="cls-2" points="205.476 68.555 218.633 91.286 192.385 91.286 205.476 68.555"/>
<polygon class="cls-2" points="179.293 68.555 192.385 91.286 166.137 91.286 179.293 68.555"/>
<polygon class="cls-3" points="192.385 91.286 218.633 91.286 205.476 114.016 192.385 91.286"/>
<polygon class="cls-3" points="166.137 91.286 192.385 91.286 179.293 114.016 166.137 91.286"/>
<polygon class="cls-4" points="179.293 68.555 205.476 68.555 192.385 91.286 179.293 68.555"/>
<polygon class="cls-5" points="192.385 15.343 214.334 53.314 170.436 53.314 192.385 15.343"/>
<polygon class="cls-6" points="148.552 91.286 170.436 129.257 126.602 129.257 148.552 91.286"/>
<polygon class="cls-7" points="214.334 129.257 236.218 167.229 192.385 167.229 214.334 129.257"/>
<polygon class="cls-8" points="236.218 15.343 258.167 53.314 214.334 53.314 236.218 15.343"/>
<polygon class="cls-9" points="258.167 53.314 280.051 91.286 236.218 91.286 258.167 53.314"/>
<polygon class="cls-6" points="126.602 53.314 148.552 91.286 104.653 91.286 126.602 53.314"/>
<path class="cls-10" d="M170.43564,129.25714H214.269l-21.94922,37.9715Z"/>
<path class="cls-10" d="M214.33406,129.25714h43.8333l-21.94923,37.9715Z"/>
<path class="cls-11" d="M104.65311,91.28565h43.8333L126.5372,129.25714Z"/>
<path class="cls-10" d="M192.38485,15.34267h43.8333L214.26893,53.31416Z"/>
<path class="cls-12" d="M214.33406,53.31416h43.8333L236.21813,91.28565Z"/>
<polygon class="cls-7" points="214.334 129.257 236.218 91.286 280.051 91.286 258.167 129.257 214.334 129.257"/>
<polygon class="cls-11" points="192.385 167.229 170.436 129.257 126.602 129.257 148.552 167.229 192.385 167.229"/>
<polygon class="cls-10" points="192.385 15.343 148.552 15.343 126.602 53.314 148.552 91.286 192.385 15.343"/>
<path d="M51.24553,227.14935c-.39079-.19538-1.10723-.521-1.10723-.521l1.75854-3.973.977.39079a23.962,23.962,0,0,0,10.09533,2.0842c5.99207,0,8.98811-1.95393,8.98811-5.92694a3.15062,3.15062,0,0,0-1.17236-2.54011,7.68161,7.68161,0,0,0-2.86578-1.62828c-1.10723-.3908-2.73551-.8467-4.81971-1.4329a61.00532,61.00532,0,0,1-6.70851-2.0842,12.13835,12.13835,0,0,1-4.42892-2.996,7.49241,7.49241,0,0,1-1.82367-5.34077,9.66059,9.66059,0,0,1,1.56315-5.34077,10.58119,10.58119,0,0,1,4.55918-3.7776,17.43933,17.43933,0,0,1,7.22956-1.43289,29.794,29.794,0,0,1,10.2256,1.69341,5.64346,5.64346,0,0,1,1.0421.39079l-1.62828,3.90787a8.317,8.317,0,0,1-.84671-.26052,25.32792,25.32792,0,0,0-8.27166-1.36776,12.294,12.294,0,0,0-6.57825,1.56315,4.8235,4.8235,0,0,0-2.54012,4.29866,3.839,3.839,0,0,0,1.23749,2.996,8.32606,8.32606,0,0,0,3.06117,1.82367,38.47411,38.47411,0,0,0,4.95,1.36776,47.84231,47.84231,0,0,1,6.51312,1.95393,10.72993,10.72993,0,0,1,4.23353,2.996,8.18291,8.18291,0,0,1,1.75854,5.53616,8.49281,8.49281,0,0,1-1.62828,5.14536,10.81034,10.81034,0,0,1-4.62431,3.58221,17.40276,17.40276,0,0,1-6.90391,1.30263A29.78685,29.78685,0,0,1,51.24553,227.14935Z"/><path d="M97.22816,227.21447a15.84075,15.84075,0,0,1-6.2526-6.51312,20.57674,20.57674,0,0,1-2.27959-9.5743,21.62,21.62,0,0,1,2.27959-9.57429,16.27645,16.27645,0,0,1,6.2526-6.51312,20.19153,20.19153,0,0,1,18.888,0,16.70265,16.70265,0,0,1,6.2526,6.51312,20.45486,20.45486,0,0,1,0,19.01832,16.27652,16.27652,0,0,1-6.2526,6.51312,18.305,18.305,0,0,1-9.444,2.34473A16.80108,16.80108,0,0,1,97.22816,227.21447Zm16.60845-3.84274a12.24617,12.24617,0,0,0,4.62432-5.01511,16.07132,16.07132,0,0,0,1.56315-7.16443,15.875,15.875,0,0,0-1.56315-7.16443,11.85819,11.85819,0,0,0-4.62432-5.01511,13.47839,13.47839,0,0,0-7.16443-1.82367,13.322,13.322,0,0,0-7.16443,1.82367,12.69926,12.69926,0,0,0-4.62432,5.01511,16.07159,16.07159,0,0,0-1.56315,7.16443,15.87513,15.87513,0,0,0,1.56315,7.16443,11.8583,11.8583,0,0,0,4.62432,5.01511,13.322,13.322,0,0,0,7.16443,1.82367A12.912,12.912,0,0,0,113.83661,223.37173Z"/>
<path d="M133.57137,193.02059h5.0151l12.76572,31.65377,12.70059-31.65377H169.133l-15.04531,36.3432h-5.471Z"/>
<path d="M192.51511,198.94753l-12.70058,30.41628h-5.01511l15.4361-36.3432H194.925l15.4361,36.3432h-5.01511Z"/>
<path d="M223.45243,229.10329V193.02061h4.62432l.06514,31.39325h19.14857v4.62432h-23.838Z"/>
<path d="M260.12129,229.10329V193.28113h25.07552v4.3638h-20.4512v11.33282H283.308v4.3638h-18.5624v11.398h20.4512v4.3638H260.12129Z"/>
<path d="M300.63291,229.36381v-36.3432h3.3217l23.25184,27.61562V193.02061h4.68946v36.3432h-3.38683l-23.18671-27.48538-.06514,27.48538Z"/>
<path d="M356.12471,229.36381v-31.7189H343.48926v-4.3638h29.89521v4.3638H360.749v31.7189Z"/><rect x="28.38447" y="193.02059" width="4.68945" height="36.3432"/>
<polygon class="cls-11" points="194.534 215.621 196.358 218.747 194.534 221.939 190.887 221.939 189.063 218.747 190.887 215.621 194.534 215.621"/>
</svg>